# xmcd
#
# Track frame offsets: 
#        150
#        22291
#        35733
#        48411
#        66566
#        89351
#        110349
#        134569
#        151613
#        177005
#        195533
#
# Disc length: 2947 seconds
#
# Revision: 8
# Processed by: cddbd v1.5.2PL0 Copyright (c) Steve Scherf et al.
# Submitted via: ExactAudioCopy v0.99pb3
#
DISCID=980b810b
DTITLE=Άλκηστις Πρωτοψάλτη - Πές Μου Θάλασσα
DYEAR=2002
DGENRE=Pop-Folk
TTITLE0=Πες Μου Θάλασσα
TTITLE1=Κραγιόν
TTITLE2=Σκιές Στο Περιστύλιο
TTITLE3=Εφτά Ζωές
TTITLE4=Τράβα Σκανδάλη
TTITLE5=Μακριά-Μακριά
TTITLE6=Ya Habibi
TTITLE7=Αντίθετα Πια
TTITLE8=Η Καταιγίδα
TTITLE9=Ροζ Γραβάτα
TTITLE10=Σ' Ααγαπώ
EXTD=YEAR: 2002 YEAR: 2002
EXTT0=
EXTT1=
EXTT2=
EXTT3=
EXTT4=
EXTT5=
EXTT6=
EXTT7=
EXTT8=
EXTT9=
EXTT10=
PLAYORDER=
